<svg xmlns="http://www.w3.org/2000/svg" width="16" height="16" viewBox="0 0 24 24"><path fill="black" d="M11.994 4a.89.89 0 0 1 .89.889V6.37h.299a3.253 3.253 0 0 1 3.256 3.26a.889.889 0 0 1-1.778 0c0-.823-.66-1.482-1.478-1.482h-2.676c-.651 0-1.18.53-1.18 1.176c0 .485.109.682.186.777c.09.11.255.222.615.344l4.3 1.425c.48.163 1.018.41 1.42.901c.416.506.59 1.148.59 1.905a2.957 2.957 0 0 1-2.956 2.954h-.599v1.481a.889.889 0 1 1-1.778 0V17.63h-.3a3.253 3.253 0 0 1-3.255-3.26a.889.889 0 0 1 1.778 0c0 .823.659 1.482 1.478 1.482h2.676c.65 0 1.179-.53 1.179-1.176c0-.485-.108-.682-.186-.777c-.09-.11-.255-.222-.615-.344L9.561 12.13c-.48-.163-1.019-.41-1.421-.901c-.416-.506-.59-1.148-.59-1.905a2.957 2.957 0 0 1 2.957-2.954h.598V4.89a.89.89 0 0 1 .89-.889"/></svg>