<svg xmlns="http://www.w3.org/2000/svg" width="18" height="18" viewBox="0 0 16 16"><path fill="#a3a3a3" d="M8 .5a.5.5 0 0 1 .5-.5h4a.5.5 0 0 1 0 1H11v14h1.5a.5.5 0 0 1 0 1h-4a.5.5 0 0 1 0-1H10V1H8.5A.5.5 0 0 1 8 .5"/><path fill="#a3a3a3" fill-rule="evenodd" d="M5.46 4.31a.501.501 0 0 0-.924 0l-2.5 6a.5.5 0 0 0 .923.385l.705-1.69h2.67l.705 1.69a.5.5 0 0 0 .923-.385l-2.5-6zM4.998 5.8L5.915 8h-1.83l.917-2.2z" clip-rule="evenodd"/><path fill="#a3a3a3" d="M8.5 3a.5.5 0 0 0 0-1H4.8c-1.68 0-2.52 0-3.16.327a3.02 3.02 0 0 0-1.31 1.31c-.327.642-.327 1.48-.327 3.16v2.4c0 1.68 0 2.52.327 3.16a3.02 3.02 0 0 0 1.31 1.31c.642.327 1.48.327 3.16.327h3.7a.5.5 0 0 0 0-1H4.8c-.857 0-1.44 0-1.89-.038c-.438-.035-.663-.1-.819-.18a2 2 0 0 1-.874-.874c-.08-.156-.145-.38-.18-.819c-.037-.45-.038-1.03-.038-1.89v-2.4c0-.857.001-1.44.038-1.89c.036-.438.101-.663.18-.819c.192-.376.498-.682.874-.874c.156-.08.381-.145.819-.18c.45-.036 1.03-.037 1.89-.037h3.7zm4 10a.506.506 0 0 0-.496.504c0 .278.226.503.504.496c.863-.02 1.41-.09 1.86-.318a3 3 0 0 0 1.31-1.31c.327-.642.327-1.48.327-3.16v-2.4c0-1.68 0-2.52-.327-3.16a3 3 0 0 0-1.31-1.31c-.449-.229-.995-.298-1.86-.318a.494.494 0 0 0-.504.496c0 .275.222.497.496.504q.333.007.592.029c.438.035.663.1.819.18c.376.192.682.498.874.874c.08.156.145.38.18.819c.037.45.038 1.03.038 1.89v2.4c0 .857-.001 1.44-.038 1.89c-.036.438-.101.663-.18.819a2 2 0 0 1-.874.874c-.156.08-.381.145-.819.18q-.26.02-.592.028z"/></svg>